<svg width="16" height="15" viewBox="0 0 16 15" fill="none" xmlns="http://www.w3.org/2000/svg">
<path d="M7.65699 1.0423C7.6862 0.983273 7.73133 0.933587 7.78729 0.898849C7.84324 0.864111 7.90779 0.845703 7.97365 0.845703C8.03951 0.845703 8.10406 0.864111 8.16002 0.898849C8.21597 0.933587 8.2611 0.983273 8.29032 1.0423L9.83032 4.16163C9.93177 4.36694 10.0815 4.54457 10.2667 4.67927C10.4519 4.81396 10.6671 4.90171 10.8937 4.93497L14.3377 5.43897C14.4029 5.44842 14.4642 5.47595 14.5146 5.51843C14.5651 5.56092 14.6026 5.61666 14.623 5.67937C14.6434 5.74208 14.6458 5.80924 14.63 5.87326C14.6143 5.93728 14.5809 5.9956 14.5337 6.04163L12.043 8.46697C11.8787 8.62703 11.7558 8.82462 11.6849 9.04272C11.6139 9.26082 11.597 9.49289 11.6357 9.71897L12.2237 13.1456C12.2352 13.2109 12.2281 13.278 12.2033 13.3394C12.1785 13.4008 12.1369 13.454 12.0833 13.493C12.0298 13.5319 11.9663 13.555 11.9002 13.5596C11.8342 13.5642 11.7681 13.5501 11.7097 13.519L8.63099 11.9003C8.42813 11.7938 8.20244 11.7381 7.97332 11.7381C7.7442 11.7381 7.51851 11.7938 7.31565 11.9003L4.23765 13.519C4.17921 13.5499 4.11325 13.5638 4.04729 13.5591C3.98132 13.5544 3.918 13.5313 3.86452 13.4924C3.81103 13.4535 3.76954 13.4004 3.74476 13.3391C3.71997 13.2778 3.71289 13.2108 3.72432 13.1456L4.31165 9.71963C4.35045 9.49345 4.33364 9.26123 4.26268 9.043C4.19171 8.82476 4.06873 8.62707 3.90432 8.46697L1.41365 6.0423C1.36605 5.99632 1.33231 5.9379 1.31629 5.87368C1.30027 5.80947 1.30261 5.74204 1.32304 5.67909C1.34347 5.61614 1.38116 5.56019 1.43184 5.51762C1.48251 5.47505 1.54412 5.44756 1.60965 5.4383L5.05299 4.93497C5.27982 4.90197 5.49525 4.81434 5.68071 4.67962C5.86617 4.54491 6.01612 4.36715 6.11765 4.16163L7.65699 1.0423Z" stroke="#252525" stroke-width="0.982713" stroke-linecap="round" stroke-linejoin="round"/>
</svg>
