<svg width="4" height="13" viewBox="0 0 4 13" fill="none" xmlns="http://www.w3.org/2000/svg">
<path d="M2.73753 6.5074C2.73753 6.11466 2.41915 5.79629 2.02642 5.79629C1.63368 5.79629 1.31531 6.11466 1.31531 6.5074C1.31531 6.90014 1.63368 7.21851 2.02642 7.21851C2.41915 7.21851 2.73753 6.90014 2.73753 6.5074Z" fill="#1B1B1B"/>
<path d="M2.73753 1.52962C2.73753 1.13689 2.41915 0.818512 2.02642 0.818512C1.63368 0.818512 1.31531 1.13689 1.31531 1.52962C1.31531 1.92236 1.63368 2.24073 2.02642 2.24073C2.41915 2.24073 2.73753 1.92236 2.73753 1.52962Z" fill="#1B1B1B"/>
<path d="M2.73753 11.4852C2.73753 11.0924 2.41915 10.7741 2.02642 10.7741C1.63368 10.7741 1.31531 11.0924 1.31531 11.4852C1.31531 11.8779 1.63368 12.1963 2.02642 12.1963C2.41915 12.1963 2.73753 11.8779 2.73753 11.4852Z" fill="#1B1B1B"/>
<path d="M2.73753 6.5074C2.73753 6.11466 2.41915 5.79629 2.02642 5.79629C1.63368 5.79629 1.31531 6.11466 1.31531 6.5074C1.31531 6.90014 1.63368 7.21851 2.02642 7.21851C2.41915 7.21851 2.73753 6.90014 2.73753 6.5074Z" stroke="#1B1B1B" stroke-width="0.711111" stroke-linecap="round" stroke-linejoin="round"/>
<path d="M2.73753 1.52962C2.73753 1.13689 2.41915 0.818512 2.02642 0.818512C1.63368 0.818512 1.31531 1.13689 1.31531 1.52962C1.31531 1.92236 1.63368 2.24073 2.02642 2.24073C2.41915 2.24073 2.73753 1.92236 2.73753 1.52962Z" stroke="#1B1B1B" stroke-width="0.711111" stroke-linecap="round" stroke-linejoin="round"/>
<path d="M2.73753 11.4852C2.73753 11.0924 2.41915 10.7741 2.02642 10.7741C1.63368 10.7741 1.31531 11.0924 1.31531 11.4852C1.31531 11.8779 1.63368 12.1963 2.02642 12.1963C2.41915 12.1963 2.73753 11.8779 2.73753 11.4852Z" stroke="#1B1B1B" stroke-width="0.711111" stroke-linecap="round" stroke-linejoin="round"/>
</svg>
